{"title":"The Penguins of Madagascar Season 3 WEB-DL HDTV XviD - DiGrX","uid":9359622,"size":3856322221,"categoryP":"video","categoryS":"tv_shows","magnet":"?xt=urn:btih:613a01245fe4bd3de19d54c7fcf2e5196a7cd807&amp;dn=The+Penguins+of+Madagascar+Season+3+WEB-DL+HDTV+XviD+-+DiGrX&amp;tr=udp%3A%2F%2Ftracker.openbittorrent.com%3A80&amp;tr=udp%3A%2F%2Fopen.demonii.com%3A1337&amp;tr=udp%3A%2F%2Ftracker.coppersurfer.tk%3A6969&amp;tr=udp%3A%2F%2Fexodus.desync.com%3A6969","seeders":2,"leechers":2,"uploader":"dimigeor","files":34,"time":1387286754,"description":"A DiGrX release\n\n\n\nThe Penguins of Madagascar Season 3 WEB-DL+HDTV+DVDRip XviD DiGrX\n\nAll Episodes in XviD from WEB-DL or HDTV or DVDRip\n\n\nThis is a DiGrX release of The Penguins of Madagascar 3rd Season with many \nepisodes from WEB-DLs &amp; HDTVs and one episode from DVDRip. In this release \nthere are some fixes like the equalization of all the episodes in Aspect Ratio \nand Dimension.\n\n         ||\n         ||\n         /\n\nCodec ID, Format: XVID, MPEG-4\nAspect ratio, Dimension: 4:3, 640x480\nAudio: MP3, 2 Channels\n\n\nAll 3rd Season 33 episodes in XviD and Aspect ratio: 4:3.\nThe most episodes are WEB-DLs, the other episodes are replenished \nwith the HDTV ones, you can spot them from the name.\n\n*WEB-DL = look alike the DVDRip\n\n\n-----------------------------------------------------------------------------------\n\nSeason 3 Episode 1 example:\n\nGeneral\nComplete name                            : 3x01 The Penguins of Madagascar - Feline Fervor HDTV.avi\nFormat                                   : AVI\nFormat/Info                              : Audio Video Interleave\nFile size                                : 97.0 MiB\nDuration                                 : 11mn 0s\nOverall bit rate mode                    : Variable\nOverall bit rate                         : 1 233 Kbps\nWriting application                      : MEncoder r33883\nWriting library                          : MPlayer\n\nVideo\nID                                       : 0\nFormat                                   : MPEG-4 Visual\nFormat profile                           : Simple@L3\nFormat settings, BVOP                    : No\nFormat settings, QPel                    : No\nFormat settings, GMC                     : No warppoints\nFormat settings, Matrix                  : Default (H.263)\nCodec ID                                 : XVID\nCodec ID/Hint                            : XviD\nDuration                                 : 11mn 0s\nBit rate                                 : 1 096 Kbps\nWidth                                    : 640 pixels\nHeight                                   : 480 pixels\nDisplay aspect ratio                     : 4:3\nFrame rate                               : 25.000 fps\nColor space                              : YUV\nChroma subsampling                       : 4:2:0\nBit depth                                : 8 bits\nScan type                                : Progressive\nCompression mode                         : Lossy\nBits/(Pixel*Frame)                       : 0.143\nStream size                              : 86.2 MiB (89%)\nWriting library                          : XviD 63\n\nAudio\nID                                       : 1\nFormat                                   : MPEG Audio\nFormat version                           : Version 1\nFormat profile                           : Layer 3\nMode                                     : Joint stereo\nMode extension                           : MS Stereo\nCodec ID                                 : 55\nCodec ID/Hint                            : MP3\nDuration                                 : 10mn 59s\nBit rate mode                            : Variable\nBit rate                                 : 124 Kbps\nChannel(s)                               : 2 channels\nSampling rate                            : 48.0 KHz\nCompression mode                         : Lossy\nStream size                              : 9.78 MiB (10%)\nAlignment                                : Aligned on interleaves\nInterleave, duration                     : 24 ms (0.60 video frame)\nInterleave, preload duration             : 463 ms\n\n\n\n\n-----------------------------------------------------------------------------------\n\nThe Penguins of Madagascar is a spin-off of the Madagascar films. The series \nfollows the adventures of the four penguin protagonists: Skipper, Kowalski, \nRico, and Private, who perform various paramilitary-like missions to protect \ntheir home in the Central Park Zoo. The penguins often have to deal with problems \ncaused, or made worse, by King Julien XIII (a ring-tailed lemur), Maurice \n(an aye-aye), and Mort (a mouse lemur).\n\n-----------------------------------------------------------------------------------\n","torrent":{"xt":"urn:btih:613a01245fe4bd3de19d54c7fcf2e5196a7cd807","amp;dn":"The+Penguins+of+Madagascar+Season+3+WEB-DL+HDTV+XviD+-+DiGrX","amp;tr":["udp%3A%2F%2Ftracker.openbittorrent.com%3A80","udp%3A%2F%2Fopen.demonii.com%3A1337","udp%3A%2F%2Ftracker.coppersurfer.tk%3A6969","udp%3A%2F%2Fexodus.desync.com%3A6969"],"infoHash":"613a01245fe4bd3de19d54c7fcf2e5196a7cd807","infoHashBuffer":{"type":"Buffer","data":[97,58,1,36,95,228,189,61,225,157,84,199,252,242,229,25,106,124,216,7]},"announce":[],"urlList":[]}}